<mxfile host="Electron" modified="2024-10-30T03:25:10.222Z" agent="Mozilla/5.0 (X11; Linux x86_64) AppleWebKit/537.36 (KHTML, like Gecko) draw.io/24.4.0 Chrome/122.0.6261.156 Electron/29.4.4 Safari/537.36" etag="4QdugccB8xJxCL0UtXRg" version="24.3.1" type="device">
  <diagram name="Page-1" id="jeFwjsfIYmaPHeOid4ZY">
    <mxGraphModel dx="492" dy="363" grid="1" gridSize="10" guides="0" tooltips="1" connect="1" arrows="1" fold="1" page="1" pageScale="1" pageWidth="850" pageHeight="1100" math="0" shadow="0">
      <root>
        <mxCell id="0" />
        <mxCell id="1" parent="0" />
        <mxCell id="ggSlcl7g4VyqQhbbVGxO-12" value="" style="rounded=0;whiteSpace=wrap;html=1;fillColor=#f8cecc;strokeColor=#b85450;fontFamily=mono;" vertex="1" parent="1">
          <mxGeometry x="140" y="330" width="200" height="190" as="geometry" />
        </mxCell>
        <mxCell id="ggSlcl7g4VyqQhbbVGxO-1" value="intSrc0" style="rounded=0;whiteSpace=wrap;html=1;fillColor=#f8cecc;strokeColor=#b85450;fontFamily=mono;" vertex="1" parent="1">
          <mxGeometry x="150" y="420" width="60" height="20" as="geometry" />
        </mxCell>
        <mxCell id="ggSlcl7g4VyqQhbbVGxO-2" value="intSrc1" style="rounded=0;whiteSpace=wrap;html=1;fillColor=#f8cecc;strokeColor=#b85450;fontFamily=mono;" vertex="1" parent="1">
          <mxGeometry x="150" y="445" width="60" height="20" as="geometry" />
        </mxCell>
        <mxCell id="ggSlcl7g4VyqQhbbVGxO-3" value="intSrc⋯" style="rounded=0;whiteSpace=wrap;html=1;fillColor=#f8cecc;strokeColor=#b85450;fontFamily=mono;" vertex="1" parent="1">
          <mxGeometry x="150" y="470" width="60" height="20" as="geometry" />
        </mxCell>
        <mxCell id="ggSlcl7g4VyqQhbbVGxO-9" value="intSrcD0" style="rounded=0;whiteSpace=wrap;html=1;fillColor=#f8cecc;strokeColor=#b85450;fontFamily=mono;textDirection=vertical-lr;" vertex="1" parent="1">
          <mxGeometry x="205" y="340" width="20" height="60" as="geometry" />
        </mxCell>
        <mxCell id="ggSlcl7g4VyqQhbbVGxO-10" value="intSrcD1" style="rounded=0;whiteSpace=wrap;html=1;fillColor=#f8cecc;strokeColor=#b85450;fontFamily=mono;textDirection=vertical-lr;" vertex="1" parent="1">
          <mxGeometry x="230" y="340" width="20" height="60" as="geometry" />
        </mxCell>
        <mxCell id="ggSlcl7g4VyqQhbbVGxO-11" value="intSrcD⋯" style="rounded=0;whiteSpace=wrap;html=1;fillColor=#f8cecc;strokeColor=#b85450;fontFamily=mono;textDirection=vertical-lr;" vertex="1" parent="1">
          <mxGeometry x="255" y="340" width="20" height="60" as="geometry" />
        </mxCell>
        <mxCell id="ggSlcl7g4VyqQhbbVGxO-14" value="Mem Mapped Regs" style="rounded=0;whiteSpace=wrap;html=1;fillColor=#f8cecc;strokeColor=#b85450;fontFamily=mono;" vertex="1" parent="1">
          <mxGeometry x="270" y="410" width="60" height="50" as="geometry" />
        </mxCell>
        <mxCell id="ggSlcl7g4VyqQhbbVGxO-15" value="Send MSI" style="html=1;shadow=0;dashed=0;align=center;verticalAlign=middle;shape=mxgraph.arrows2.arrow;dy=0;dx=6;notch=5.17;fillColor=#f8cecc;strokeColor=#b85450;fontFamily=mono;" vertex="1" parent="1">
          <mxGeometry x="260" y="470" width="70" height="20" as="geometry" />
        </mxCell>
        <mxCell id="ggSlcl7g4VyqQhbbVGxO-17" value="" style="endArrow=classic;html=1;rounded=0;fontFamily=mono;" edge="1" parent="1" source="ggSlcl7g4VyqQhbbVGxO-23" target="ggSlcl7g4VyqQhbbVGxO-1">
          <mxGeometry width="50" height="50" relative="1" as="geometry">
            <mxPoint x="120" y="430" as="sourcePoint" />
            <mxPoint x="220" y="490" as="targetPoint" />
          </mxGeometry>
        </mxCell>
        <mxCell id="ggSlcl7g4VyqQhbbVGxO-18" value="" style="endArrow=classic;html=1;rounded=0;fontFamily=mono;" edge="1" parent="1" source="ggSlcl7g4VyqQhbbVGxO-25" target="ggSlcl7g4VyqQhbbVGxO-2">
          <mxGeometry width="50" height="50" relative="1" as="geometry">
            <mxPoint x="120" y="455" as="sourcePoint" />
            <mxPoint x="140" y="455" as="targetPoint" />
          </mxGeometry>
        </mxCell>
        <mxCell id="ggSlcl7g4VyqQhbbVGxO-19" value="" style="endArrow=classic;html=1;rounded=0;fontFamily=mono;" edge="1" parent="1" source="ggSlcl7g4VyqQhbbVGxO-26" target="ggSlcl7g4VyqQhbbVGxO-3">
          <mxGeometry width="50" height="50" relative="1" as="geometry">
            <mxPoint x="120" y="480" as="sourcePoint" />
            <mxPoint x="140" y="480" as="targetPoint" />
          </mxGeometry>
        </mxCell>
        <mxCell id="ggSlcl7g4VyqQhbbVGxO-23" value="Wired Device 0" style="rounded=0;whiteSpace=wrap;html=1;fontFamily=mono;" vertex="1" parent="1">
          <mxGeometry y="420" width="120" height="20" as="geometry" />
        </mxCell>
        <mxCell id="ggSlcl7g4VyqQhbbVGxO-25" value="Wired Device 1" style="rounded=0;whiteSpace=wrap;html=1;fontFamily=mono;" vertex="1" parent="1">
          <mxGeometry y="445" width="120" height="20" as="geometry" />
        </mxCell>
        <mxCell id="ggSlcl7g4VyqQhbbVGxO-26" value="Wired Device ⋯" style="rounded=0;whiteSpace=wrap;html=1;fontFamily=mono;" vertex="1" parent="1">
          <mxGeometry y="470" width="120" height="20" as="geometry" />
        </mxCell>
        <mxCell id="ggSlcl7g4VyqQhbbVGxO-27" value="Bus" style="rounded=0;whiteSpace=wrap;html=1;fontFamily=mono;" vertex="1" parent="1">
          <mxGeometry x="360" y="110" width="30" height="410" as="geometry" />
        </mxCell>
        <mxCell id="ggSlcl7g4VyqQhbbVGxO-31" value="&lt;b&gt;M Domain&lt;/b&gt;" style="text;html=1;align=center;verticalAlign=middle;whiteSpace=wrap;rounded=0;" vertex="1" parent="1">
          <mxGeometry x="200" y="500" width="80" height="20" as="geometry" />
        </mxCell>
        <mxCell id="ggSlcl7g4VyqQhbbVGxO-32" value="" style="rounded=0;whiteSpace=wrap;html=1;fillColor=#f8cecc;strokeColor=#b85450;fontFamily=mono;" vertex="1" parent="1">
          <mxGeometry x="140" y="110" width="200" height="190" as="geometry" />
        </mxCell>
        <mxCell id="ggSlcl7g4VyqQhbbVGxO-33" value="intSrc0" style="rounded=0;whiteSpace=wrap;html=1;fillColor=#f8cecc;strokeColor=#b85450;fontFamily=mono;" vertex="1" parent="1">
          <mxGeometry x="150" y="200" width="60" height="20" as="geometry" />
        </mxCell>
        <mxCell id="ggSlcl7g4VyqQhbbVGxO-34" value="intSrc1" style="rounded=0;whiteSpace=wrap;html=1;fillColor=#f8cecc;strokeColor=#b85450;fontFamily=mono;" vertex="1" parent="1">
          <mxGeometry x="150" y="225" width="60" height="20" as="geometry" />
        </mxCell>
        <mxCell id="ggSlcl7g4VyqQhbbVGxO-35" value="intSrc⋯" style="rounded=0;whiteSpace=wrap;html=1;fillColor=#f8cecc;strokeColor=#b85450;fontFamily=mono;" vertex="1" parent="1">
          <mxGeometry x="150" y="250" width="60" height="20" as="geometry" />
        </mxCell>
        <mxCell id="ggSlcl7g4VyqQhbbVGxO-36" value="intSrcD0" style="rounded=0;whiteSpace=wrap;html=1;fillColor=#f8cecc;strokeColor=#b85450;fontFamily=mono;textDirection=vertical-lr;" vertex="1" parent="1">
          <mxGeometry x="205" y="120" width="20" height="60" as="geometry" />
        </mxCell>
        <mxCell id="ggSlcl7g4VyqQhbbVGxO-37" value="intSrcD1" style="rounded=0;whiteSpace=wrap;html=1;fillColor=#f8cecc;strokeColor=#b85450;fontFamily=mono;textDirection=vertical-lr;" vertex="1" parent="1">
          <mxGeometry x="230" y="120" width="20" height="60" as="geometry" />
        </mxCell>
        <mxCell id="ggSlcl7g4VyqQhbbVGxO-38" value="intSrcD⋯" style="rounded=0;whiteSpace=wrap;html=1;fillColor=#f8cecc;strokeColor=#b85450;fontFamily=mono;textDirection=vertical-lr;" vertex="1" parent="1">
          <mxGeometry x="255" y="120" width="20" height="60" as="geometry" />
        </mxCell>
        <mxCell id="ggSlcl7g4VyqQhbbVGxO-39" value="Mem Mapped Regs" style="rounded=0;whiteSpace=wrap;html=1;fillColor=#f8cecc;strokeColor=#b85450;fontFamily=mono;" vertex="1" parent="1">
          <mxGeometry x="270" y="190" width="60" height="50" as="geometry" />
        </mxCell>
        <mxCell id="ggSlcl7g4VyqQhbbVGxO-40" value="Send MSI" style="html=1;shadow=0;dashed=0;align=center;verticalAlign=middle;shape=mxgraph.arrows2.arrow;dy=0;dx=6;notch=5.17;fillColor=#f8cecc;strokeColor=#b85450;fontFamily=mono;" vertex="1" parent="1">
          <mxGeometry x="260" y="250" width="70" height="20" as="geometry" />
        </mxCell>
        <mxCell id="ggSlcl7g4VyqQhbbVGxO-41" value="" style="endArrow=classic;html=1;rounded=0;fontFamily=mono;" edge="1" source="ggSlcl7g4VyqQhbbVGxO-36" parent="1">
          <mxGeometry width="50" height="50" relative="1" as="geometry">
            <mxPoint x="135" y="90" as="sourcePoint" />
            <mxPoint x="215" y="100" as="targetPoint" />
          </mxGeometry>
        </mxCell>
        <mxCell id="ggSlcl7g4VyqQhbbVGxO-42" value="" style="endArrow=classic;html=1;rounded=0;fontFamily=mono;" edge="1" source="ggSlcl7g4VyqQhbbVGxO-37" parent="1">
          <mxGeometry width="50" height="50" relative="1" as="geometry">
            <mxPoint x="240" y="180" as="sourcePoint" />
            <mxPoint x="240" y="100" as="targetPoint" />
          </mxGeometry>
        </mxCell>
        <mxCell id="ggSlcl7g4VyqQhbbVGxO-43" value="" style="endArrow=classic;html=1;rounded=0;fontFamily=mono;" edge="1" source="ggSlcl7g4VyqQhbbVGxO-38" parent="1">
          <mxGeometry width="50" height="50" relative="1" as="geometry">
            <mxPoint x="265" y="180" as="sourcePoint" />
            <mxPoint x="265" y="100" as="targetPoint" />
          </mxGeometry>
        </mxCell>
        <mxCell id="ggSlcl7g4VyqQhbbVGxO-44" value="&lt;b&gt;S Domain&lt;/b&gt;" style="text;html=1;align=center;verticalAlign=middle;whiteSpace=wrap;rounded=0;" vertex="1" parent="1">
          <mxGeometry x="200" y="280" width="80" height="20" as="geometry" />
        </mxCell>
        <mxCell id="ggSlcl7g4VyqQhbbVGxO-20" value="" style="endArrow=classic;html=1;rounded=1;fontFamily=mono;curved=0;" edge="1" parent="1" source="ggSlcl7g4VyqQhbbVGxO-9" target="ggSlcl7g4VyqQhbbVGxO-33">
          <mxGeometry width="50" height="50" relative="1" as="geometry">
            <mxPoint x="135" y="310" as="sourcePoint" />
            <mxPoint x="215" y="320" as="targetPoint" />
            <Array as="points">
              <mxPoint x="215" y="320" />
              <mxPoint x="120" y="320" />
              <mxPoint x="120" y="210" />
            </Array>
          </mxGeometry>
        </mxCell>
        <mxCell id="ggSlcl7g4VyqQhbbVGxO-21" value="" style="endArrow=classic;html=1;rounded=1;fontFamily=mono;curved=0;" edge="1" parent="1" source="ggSlcl7g4VyqQhbbVGxO-10" target="ggSlcl7g4VyqQhbbVGxO-34">
          <mxGeometry width="50" height="50" relative="1" as="geometry">
            <mxPoint x="240" y="400" as="sourcePoint" />
            <mxPoint x="240" y="320" as="targetPoint" />
            <Array as="points">
              <mxPoint x="240" y="315" />
              <mxPoint x="125" y="315" />
              <mxPoint x="125" y="235" />
            </Array>
          </mxGeometry>
        </mxCell>
        <mxCell id="ggSlcl7g4VyqQhbbVGxO-22" value="" style="endArrow=classic;html=1;rounded=1;fontFamily=mono;curved=0;" edge="1" parent="1" source="ggSlcl7g4VyqQhbbVGxO-11" target="ggSlcl7g4VyqQhbbVGxO-35">
          <mxGeometry width="50" height="50" relative="1" as="geometry">
            <mxPoint x="265" y="400" as="sourcePoint" />
            <mxPoint x="265" y="320" as="targetPoint" />
            <Array as="points">
              <mxPoint x="265" y="310" />
              <mxPoint x="130" y="310" />
              <mxPoint x="130" y="260" />
            </Array>
          </mxGeometry>
        </mxCell>
        <mxCell id="ggSlcl7g4VyqQhbbVGxO-50" value="" style="rounded=1;whiteSpace=wrap;html=1;fillColor=#f5f5f5;fontColor=#333333;strokeColor=none;opacity=90;" vertex="1" parent="1">
          <mxGeometry x="160" y="307" width="60" height="16" as="geometry" />
        </mxCell>
        <mxCell id="ggSlcl7g4VyqQhbbVGxO-48" value="delegation" style="text;html=1;align=center;verticalAlign=middle;whiteSpace=wrap;rounded=0;" vertex="1" parent="1">
          <mxGeometry x="160" y="310" width="60" height="10" as="geometry" />
        </mxCell>
        <mxCell id="ggSlcl7g4VyqQhbbVGxO-73" value="" style="group" vertex="1" connectable="0" parent="1">
          <mxGeometry x="330" y="213" width="30" height="4" as="geometry" />
        </mxCell>
        <mxCell id="ggSlcl7g4VyqQhbbVGxO-74" value="" style="endArrow=classic;html=1;rounded=1;curved=0;startArrow=classic;startFill=1;" edge="1" parent="ggSlcl7g4VyqQhbbVGxO-73">
          <mxGeometry width="50" height="50" relative="1" as="geometry">
            <mxPoint y="2" as="sourcePoint" />
            <mxPoint x="30" y="2" as="targetPoint" />
            <Array as="points">
              <mxPoint x="5" y="2" />
              <mxPoint x="15" y="4" />
              <mxPoint x="25" y="2" />
            </Array>
          </mxGeometry>
        </mxCell>
        <mxCell id="ggSlcl7g4VyqQhbbVGxO-75" value="" style="endArrow=classic;html=1;rounded=1;curved=0;startArrow=classic;startFill=1;" edge="1" parent="ggSlcl7g4VyqQhbbVGxO-73">
          <mxGeometry width="50" height="50" relative="1" as="geometry">
            <mxPoint y="2" as="sourcePoint" />
            <mxPoint x="30" y="2" as="targetPoint" />
            <Array as="points">
              <mxPoint x="5" y="2" />
              <mxPoint x="15" />
              <mxPoint x="25" y="2" />
            </Array>
          </mxGeometry>
        </mxCell>
        <mxCell id="ggSlcl7g4VyqQhbbVGxO-76" value="" style="group" vertex="1" connectable="0" parent="1">
          <mxGeometry x="330" y="258" width="30" height="4" as="geometry" />
        </mxCell>
        <mxCell id="ggSlcl7g4VyqQhbbVGxO-77" value="" style="endArrow=classic;html=1;rounded=1;curved=0;startArrow=none;startFill=0;" edge="1" parent="ggSlcl7g4VyqQhbbVGxO-76">
          <mxGeometry width="50" height="50" relative="1" as="geometry">
            <mxPoint y="2" as="sourcePoint" />
            <mxPoint x="30" y="2" as="targetPoint" />
            <Array as="points">
              <mxPoint x="1" y="2" />
              <mxPoint x="13" y="4" />
              <mxPoint x="25" y="2" />
            </Array>
          </mxGeometry>
        </mxCell>
        <mxCell id="ggSlcl7g4VyqQhbbVGxO-78" value="" style="endArrow=classic;html=1;rounded=1;curved=0;startArrow=none;startFill=0;" edge="1" parent="ggSlcl7g4VyqQhbbVGxO-76">
          <mxGeometry width="50" height="50" relative="1" as="geometry">
            <mxPoint y="2" as="sourcePoint" />
            <mxPoint x="30" y="2" as="targetPoint" />
            <Array as="points">
              <mxPoint x="1" y="2" />
              <mxPoint x="13" />
              <mxPoint x="25" y="2" />
            </Array>
          </mxGeometry>
        </mxCell>
        <mxCell id="ggSlcl7g4VyqQhbbVGxO-79" value="" style="group" vertex="1" connectable="0" parent="1">
          <mxGeometry x="330" y="433" width="30" height="4" as="geometry" />
        </mxCell>
        <mxCell id="ggSlcl7g4VyqQhbbVGxO-80" value="" style="endArrow=classic;html=1;rounded=1;curved=0;startArrow=classic;startFill=1;" edge="1" parent="ggSlcl7g4VyqQhbbVGxO-79">
          <mxGeometry width="50" height="50" relative="1" as="geometry">
            <mxPoint y="2" as="sourcePoint" />
            <mxPoint x="30" y="2" as="targetPoint" />
            <Array as="points">
              <mxPoint x="5" y="2" />
              <mxPoint x="15" y="4" />
              <mxPoint x="25" y="2" />
            </Array>
          </mxGeometry>
        </mxCell>
        <mxCell id="ggSlcl7g4VyqQhbbVGxO-81" value="" style="endArrow=classic;html=1;rounded=1;curved=0;startArrow=classic;startFill=1;" edge="1" parent="ggSlcl7g4VyqQhbbVGxO-79">
          <mxGeometry width="50" height="50" relative="1" as="geometry">
            <mxPoint y="2" as="sourcePoint" />
            <mxPoint x="30" y="2" as="targetPoint" />
            <Array as="points">
              <mxPoint x="5" y="2" />
              <mxPoint x="15" />
              <mxPoint x="25" y="2" />
            </Array>
          </mxGeometry>
        </mxCell>
        <mxCell id="ggSlcl7g4VyqQhbbVGxO-82" value="" style="group" vertex="1" connectable="0" parent="1">
          <mxGeometry x="330" y="478" width="30" height="4" as="geometry" />
        </mxCell>
        <mxCell id="ggSlcl7g4VyqQhbbVGxO-83" value="" style="endArrow=classic;html=1;rounded=1;curved=0;startArrow=none;startFill=0;" edge="1" parent="ggSlcl7g4VyqQhbbVGxO-82">
          <mxGeometry width="50" height="50" relative="1" as="geometry">
            <mxPoint y="2" as="sourcePoint" />
            <mxPoint x="30" y="2" as="targetPoint" />
            <Array as="points">
              <mxPoint x="1" y="2" />
              <mxPoint x="13" y="4" />
              <mxPoint x="25" y="2" />
            </Array>
          </mxGeometry>
        </mxCell>
        <mxCell id="ggSlcl7g4VyqQhbbVGxO-84" value="" style="endArrow=classic;html=1;rounded=1;curved=0;startArrow=none;startFill=0;" edge="1" parent="ggSlcl7g4VyqQhbbVGxO-82">
          <mxGeometry width="50" height="50" relative="1" as="geometry">
            <mxPoint y="2" as="sourcePoint" />
            <mxPoint x="30" y="2" as="targetPoint" />
            <Array as="points">
              <mxPoint x="1" y="2" />
              <mxPoint x="13" />
              <mxPoint x="25" y="2" />
            </Array>
          </mxGeometry>
        </mxCell>
        <mxCell id="ggSlcl7g4VyqQhbbVGxO-87" value="&lt;font style=&quot;font-size: 10px;&quot;&gt;ie0&lt;/font&gt;" style="rounded=0;whiteSpace=wrap;html=1;fillColor=#f8cecc;strokeColor=#b85450;fontFamily=mono;" vertex="1" parent="1">
          <mxGeometry x="230" y="210" width="20" height="10" as="geometry" />
        </mxCell>
        <mxCell id="ggSlcl7g4VyqQhbbVGxO-89" value="&lt;font style=&quot;font-size: 10px;&quot;&gt;ie1&lt;/font&gt;" style="rounded=0;whiteSpace=wrap;html=1;fillColor=#f8cecc;strokeColor=#b85450;fontFamily=mono;" vertex="1" parent="1">
          <mxGeometry x="230" y="235" width="20" height="10" as="geometry" />
        </mxCell>
        <mxCell id="ggSlcl7g4VyqQhbbVGxO-91" value="&lt;font style=&quot;font-size: 10px;&quot;&gt;ie&lt;/font&gt;⋯" style="rounded=0;whiteSpace=wrap;html=1;fillColor=#f8cecc;strokeColor=#b85450;fontFamily=mono;" vertex="1" parent="1">
          <mxGeometry x="230" y="260" width="20" height="10" as="geometry" />
        </mxCell>
        <mxCell id="ggSlcl7g4VyqQhbbVGxO-94" value="&lt;font style=&quot;font-size: 10px;&quot;&gt;ie0&lt;/font&gt;" style="rounded=0;whiteSpace=wrap;html=1;fillColor=#f8cecc;strokeColor=#b85450;fontFamily=mono;" vertex="1" parent="1">
          <mxGeometry x="230" y="430" width="20" height="10" as="geometry" />
        </mxCell>
        <mxCell id="ggSlcl7g4VyqQhbbVGxO-96" value="&lt;font style=&quot;font-size: 10px;&quot;&gt;ie1&lt;/font&gt;" style="rounded=0;whiteSpace=wrap;html=1;fillColor=#f8cecc;strokeColor=#b85450;fontFamily=mono;" vertex="1" parent="1">
          <mxGeometry x="230" y="455" width="20" height="10" as="geometry" />
        </mxCell>
        <mxCell id="ggSlcl7g4VyqQhbbVGxO-98" value="&lt;font style=&quot;font-size: 10px;&quot;&gt;ie&lt;/font&gt;⋯" style="rounded=0;whiteSpace=wrap;html=1;fillColor=#f8cecc;strokeColor=#b85450;fontFamily=mono;" vertex="1" parent="1">
          <mxGeometry x="230" y="480" width="20" height="10" as="geometry" />
        </mxCell>
        <mxCell id="ggSlcl7g4VyqQhbbVGxO-86" value="&lt;font style=&quot;font-size: 10px;&quot;&gt;ip0&lt;/font&gt;" style="rounded=0;whiteSpace=wrap;html=1;fillColor=#f8cecc;strokeColor=#b85450;fontFamily=mono;" vertex="1" parent="1">
          <mxGeometry x="230" y="200" width="20" height="10" as="geometry" />
        </mxCell>
        <mxCell id="ggSlcl7g4VyqQhbbVGxO-88" value="&lt;font style=&quot;font-size: 10px;&quot;&gt;ip1&lt;/font&gt;" style="rounded=0;whiteSpace=wrap;html=1;fillColor=#f8cecc;strokeColor=#b85450;fontFamily=mono;" vertex="1" parent="1">
          <mxGeometry x="230" y="225" width="20" height="10" as="geometry" />
        </mxCell>
        <mxCell id="ggSlcl7g4VyqQhbbVGxO-90" value="&lt;font style=&quot;font-size: 10px;&quot;&gt;ip&lt;/font&gt;⋯" style="rounded=0;whiteSpace=wrap;html=1;fillColor=#f8cecc;strokeColor=#b85450;fontFamily=mono;" vertex="1" parent="1">
          <mxGeometry x="230" y="250" width="20" height="10" as="geometry" />
        </mxCell>
        <mxCell id="ggSlcl7g4VyqQhbbVGxO-93" value="&lt;font style=&quot;font-size: 10px;&quot;&gt;ip0&lt;/font&gt;" style="rounded=0;whiteSpace=wrap;html=1;fillColor=#f8cecc;strokeColor=#b85450;fontFamily=mono;" vertex="1" parent="1">
          <mxGeometry x="230" y="420" width="20" height="10" as="geometry" />
        </mxCell>
        <mxCell id="ggSlcl7g4VyqQhbbVGxO-95" value="&lt;font style=&quot;font-size: 10px;&quot;&gt;ip1&lt;/font&gt;" style="rounded=0;whiteSpace=wrap;html=1;fillColor=#f8cecc;strokeColor=#b85450;fontFamily=mono;" vertex="1" parent="1">
          <mxGeometry x="230" y="445" width="20" height="10" as="geometry" />
        </mxCell>
        <mxCell id="ggSlcl7g4VyqQhbbVGxO-97" value="&lt;font style=&quot;font-size: 10px;&quot;&gt;ip&lt;/font&gt;⋯" style="rounded=0;whiteSpace=wrap;html=1;fillColor=#f8cecc;strokeColor=#b85450;fontFamily=mono;" vertex="1" parent="1">
          <mxGeometry x="230" y="470" width="20" height="10" as="geometry" />
        </mxCell>
      </root>
    </mxGraphModel>
  </diagram>
</mxfile>
